<?xml version="1.0" encoding="UTF-8" standalone="no"?>
<!-- Created with Inkscape (http://www.inkscape.org/) -->

<svg
   xmlns:dc="http://purl.org/dc/elements/1.1/"
   xmlns:cc="http://creativecommons.org/ns#"
   xmlns:rdf="http://www.w3.org/1999/02/22-rdf-syntax-ns#"
   xmlns:svg="http://www.w3.org/2000/svg"
   xmlns="http://www.w3.org/2000/svg"
   xmlns:sodipodi="http://sodipodi.sourceforge.net/DTD/sodipodi-0.dtd"
   xmlns:inkscape="http://www.inkscape.org/namespaces/inkscape"
   width="132.29167mm"
   height="132.29167mm"
   viewBox="0 0 132.29167 132.29167"
   version="1.1"
   id="svg890"
   inkscape:version="0.92.2 (unknown)"
   sodipodi:docname="garlicoin_icon_dark.svg">
  <defs
     id="defs884" />
  <sodipodi:namedview
     id="base"
     pagecolor="#ffffff"
     bordercolor="#666666"
     borderopacity="1.0"
     inkscape:pageopacity="0.0"
     inkscape:pageshadow="2"
     inkscape:zoom="0.35"
     inkscape:cx="223.82735"
     inkscape:cy="-2309.4243"
     inkscape:document-units="mm"
     inkscape:current-layer="layer1"
     showgrid="false"
     fit-margin-top="0"
     fit-margin-left="0"
     fit-margin-right="0"
     fit-margin-bottom="0"
     inkscape:window-width="1853"
     inkscape:window-height="1021"
     inkscape:window-x="67"
     inkscape:window-y="27"
     inkscape:window-maximized="1" />
  <metadata
     id="metadata887">
    <rdf:RDF>
      <cc:Work
         rdf:about="">
        <dc:format>image/svg+xml</dc:format>
        <dc:type
           rdf:resource="http://purl.org/dc/dcmitype/StillImage" />
        <dc:title></dc:title>
      </cc:Work>
    </rdf:RDF>
  </metadata>
  <g
     inkscape:label="Layer 1"
     inkscape:groupmode="layer"
     id="layer1"
     transform="translate(116.67337,27.492556)">
    <path
       inkscape:export-ydpi="90"
       inkscape:export-xdpi="90"
       id="path865"
       d="m -50.527347,-27.492556 a 66.145796,66.145796 0 0 0 -66.146023,66.146 66.145796,66.145796 0 0 0 66.146023,66.145666 66.145796,66.145796 0 0 0 66.145646,-66.145666 66.145796,66.145796 0 0 0 -66.145646,-66.146 z m 0,8.72754 c 13.5661,0 26.043266,4.72782 35.878046,12.6190403 -0.0872,0.0274 -0.174,0.0556 -0.2602,0.0862 -2.8979,1.0327 -5.48828,1.94248 -7.87112,2.73264 -7.948766,-5.2577 -17.483146,-8.3191603 -27.746686,-8.3191603 -27.82182,0 -50.299343,22.47752 -50.299343,50.29936 0,27.821803 22.477523,50.299363 50.299343,50.299363 27.821806,0 50.29938633,-22.47756 50.29938633,-50.299363 0,-10.27254 -3.06686003,-19.8148 -8.33314003,-27.76778 0.79788,-2.3677797 1.71138,-4.9437997 2.74698,-7.8496597 0.031,-0.0872 0.057,-0.1746 0.0842,-0.26218 7.8921,9.8349997 12.62062,22.3131397 12.62062,35.8799797 0,31.669063 -25.7490403,57.418103 -57.4180663,57.418103 -31.6691,0 -57.418103,-25.74904 -57.418103,-57.418103 0,-31.6690597 25.749003,-57.41806 57.418103,-57.41806 v 0 z m 38.052606,15.8522603 c 0.962,0.012 1.8779,0.41394 2.5392003,1.11274 0.92058,0.97255999 1.2175,2.37951999 0.76824,3.64112 -5.9074803,16.5765797 -8.3422003,24.1669597 -5.0772603,38.4426597 3.72726,16.29684 -6.83792,33.321903 -23.289526,38.470503 -11.16864,3.49524 -22.5177,0.54772 -29.79292,-6.92764 -5.7122,-2.50632 -13.37562,-10.792263 -16.37348,-16.373423 -7.4754,-7.27524 -10.42288,-18.62424 -6.9276,-29.79296 5.1486,-16.4515397 22.17402,-27.0167797 38.47082,-23.2895597 14.27572,3.26496 21.865766,0.83024 38.442286,-5.07726 0.39788,-0.1418 0.81784,-0.21168 1.24024,-0.20618 z m -6.8804,10.39402 c -4.2273,1.70518 -9.77034,4.0019397 -15.691786,6.6428197 -12.29914,5.4853 -26.17334,12.75662 -30.5779,17.1612 -4.9879,4.9879 -8.0292,10.89116 -8.96948,16.12278 -0.71082,3.95488 -0.27454,7.38682 1.19808,10.04444 0.63288,0.69086 1.30068,1.3932 1.98862,2.0812 0.68816,0.68816 1.39056,1.35598 2.08162,1.98906 2.65746,1.47226 6.08912,1.908423 10.04366,1.19768 5.23164,-0.94026 11.13564,-3.98164 16.12358,-8.9695 4.40456,-4.40456 11.67546,-18.27836 17.160806,-30.57754 2.64086,-5.92138 4.93772,-11.46478 6.6428,-15.6921397 z m -39.563666,1.28192 c -10.75842,0.1278 -21.41976,7.8516797 -24.9159,19.0231197 -2.19504,7.01398 -1.16224,13.78072 2.13478,18.9516 0.031,-0.1964 0.0636,-0.39278 0.0988,-0.58914 1.2405,-6.902 5.00898,-13.96374 10.94266,-19.89744 5.34904,-5.34902 15.52066,-10.70438 25.91738,-15.54002 -2.83914,-0.21482 -5.80512,-0.66992 -9.00368,-1.4014797 -1.53926,-0.352 -3.10022,-0.52992 -4.66174,-0.54664 -0.1708,-0.004 -0.34164,-0.004 -0.5124,0 z m 36.334006,24.1035597 c -4.83568,10.39684 -10.191326,20.56906 -15.540406,25.91816 -5.93366,5.933683 -12.99582,9.701303 -19.89788,10.941843 -0.1964,0.0352 -0.39268,0.0678 -0.5891,0.0988 5.171,3.29744 11.93772,4.33038 18.952,2.13522 12.970066,-4.059 21.292826,-17.776003 18.476506,-30.090043 -0.73162,-3.19878 -1.1863,-6.16478 -1.40112,-9.00408 z"
       style="color:#000000;clip-rule:nonzero;display:inline;overflow:visible;visibility:visible;opacity:1;isolation:auto;mix-blend-mode:normal;color-interpolation:sRGB;color-interpolation-filters:linearRGB;solid-color:#000000;solid-opacity:1;fill:#333333;fill-opacity:1;fill-rule:nonzero;stroke:none;stroke-width:10.30902004;stroke-linecap:square;stroke-linejoin:round;stroke-miterlimit:4;stroke-dasharray:none;stroke-dashoffset:0;stroke-opacity:1;color-rendering:auto;image-rendering:auto;shape-rendering:auto;text-rendering:auto;enable-background:accumulate"
       inkscape:connector-curvature="0" />
  </g>
</svg>
