<?xml version="1.0" encoding="UTF-8" standalone="no"?>
<!-- Created with Inkscape (http://www.inkscape.org/) -->

<svg
   xmlns:dc="http://purl.org/dc/elements/1.1/"
   xmlns:cc="http://creativecommons.org/ns#"
   xmlns:rdf="http://www.w3.org/1999/02/22-rdf-syntax-ns#"
   xmlns:svg="http://www.w3.org/2000/svg"
   xmlns="http://www.w3.org/2000/svg"
   xmlns:xlink="http://www.w3.org/1999/xlink"
   xmlns:sodipodi="http://sodipodi.sourceforge.net/DTD/sodipodi-0.dtd"
   xmlns:inkscape="http://www.inkscape.org/namespaces/inkscape"
   width="230.32291mm"
   height="66.145828mm"
   viewBox="0 0 230.32291 66.145828"
   version="1.1"
   id="svg890"
   inkscape:version="0.92.2 (unknown)"
   sodipodi:docname="garlicoin_full_light.svg">
  <defs
     id="defs884">
    <linearGradient
       inkscape:collect="always"
       xlink:href="#linearGradient7939"
       id="linearGradient875"
       gradientUnits="userSpaceOnUse"
       gradientTransform="matrix(0.09550796,0,0,0.09550796,-629.01924,-485.63336)"
       x1="5497.1431"
       y1="6275.2192"
       x2="4780"
       y2="6992.3623" />
    <linearGradient
       id="linearGradient7939"
       inkscape:collect="always">
      <stop
         id="stop7941"
         offset="0"
         style="stop-color:#fbcb6a;stop-opacity:1" />
      <stop
         id="stop7943"
         offset="1"
         style="stop-color:#ffe66d;stop-opacity:1" />
    </linearGradient>
  </defs>
  <sodipodi:namedview
     id="base"
     pagecolor="#ffffff"
     bordercolor="#666666"
     borderopacity="1.0"
     inkscape:pageopacity="0.0"
     inkscape:pageshadow="2"
     inkscape:zoom="0.35"
     inkscape:cx="435.25589"
     inkscape:cy="125"
     inkscape:document-units="mm"
     inkscape:current-layer="layer1"
     showgrid="false"
     fit-margin-top="0"
     fit-margin-left="0"
     fit-margin-right="0"
     fit-margin-bottom="0"
     inkscape:window-width="1853"
     inkscape:window-height="1021"
     inkscape:window-x="67"
     inkscape:window-y="27"
     inkscape:window-maximized="1" />
  <metadata
     id="metadata887">
    <rdf:RDF>
      <cc:Work
         rdf:about="">
        <dc:format>image/svg+xml</dc:format>
        <dc:type
           rdf:resource="http://purl.org/dc/dcmitype/StillImage" />
        <dc:title></dc:title>
      </cc:Work>
    </rdf:RDF>
  </metadata>
  <g
     inkscape:label="Layer 1"
     inkscape:groupmode="layer"
     id="layer1"
     transform="translate(172.61384,-115.76042)">
    <path
       style="color:#000000;clip-rule:nonzero;display:inline;overflow:visible;visibility:visible;opacity:1;isolation:auto;mix-blend-mode:normal;color-interpolation:sRGB;color-interpolation-filters:linearRGB;solid-color:#000000;solid-opacity:1;fill:#333333;fill-opacity:1;fill-rule:nonzero;stroke:none;stroke-width:35;stroke-linecap:square;stroke-linejoin:round;stroke-miterlimit:4;stroke-dasharray:none;stroke-dashoffset:0;stroke-opacity:1;color-rendering:auto;image-rendering:auto;shape-rendering:auto;text-rendering:auto;enable-background:accumulate"
       d="M 585.56445 62.994141 C 579.49215 62.994141 573.82422 68.257411 573.82422 74.599609 C 573.82422 79.997266 577.87119 84.451172 583.80859 84.451172 C 589.61109 84.451172 595.14453 78.918043 595.14453 72.845703 C 595.14453 67.448084 591.23195 62.994141 585.56445 62.994141 z M 785.64062 62.994141 C 779.56822 62.994141 773.90039 68.257411 773.90039 74.599609 C 773.90039 79.997266 777.94932 84.451172 783.88672 84.451172 C 789.68912 84.451172 795.2207 78.918043 795.2207 72.845703 C 795.2207 67.448084 791.30812 62.994141 785.64062 62.994141 z M 537.53906 69.472656 L 517.97266 163.79492 L 537.67383 163.79492 L 557.24023 69.472656 L 537.53906 69.472656 z M 318.0332 92.412109 C 297.5223 92.412109 281.19531 111.70807 281.19531 131.94922 C 281.19531 147.87222 291.45031 158.66797 307.10352 158.66797 C 315.73971 158.66797 324.37605 155.29357 331.12305 148.81641 L 329.9082 154.75391 C 327.8841 163.79491 317.6285 170.4082 304.4043 170.4082 C 296.9826 170.4082 289.42674 168.38435 285.64844 164.20117 L 276.87695 177.28906 C 282.94926 182.68668 293.74505 187.00586 306.56445 187.00586 C 327.61515 187.00586 345.15701 175.53554 349.07031 157.18359 L 362.16016 94.03125 L 342.45898 94.03125 L 340.29883 104.69141 C 337.06023 97.674487 328.8285 92.412109 318.0332 92.412109 z M 409.5293 92.412109 C 387.12919 92.412109 369.85742 113.59841 369.85742 137.07812 C 369.85742 153.40595 380.78649 165.41406 396.30469 165.41406 C 405.75058 165.41406 414.25118 161.36596 420.86328 154.75391 L 418.97461 163.79492 L 438.67578 163.79492 L 453.25 94.03125 L 433.54883 94.03125 L 431.11914 105.36523 C 426.93594 97.403735 419.11009 92.412109 409.5293 92.412109 z M 515.40039 92.412109 C 504.87509 92.412109 495.56459 97.539724 489.49219 106.04102 L 491.91992 94.03125 L 472.21875 94.03125 L 457.64453 163.79492 L 477.34766 163.79492 L 484.49805 129.65625 C 487.73665 117.51161 499.20633 109.00977 513.24023 109.00977 L 515.40039 92.412109 z M 642.90625 92.412109 C 619.69645 92.412109 597.83594 111.57359 597.83594 134.64844 C 597.83594 151.65098 611.46501 165.41406 629.41211 165.41406 C 640.88211 165.41406 650.86784 161.36742 659.36914 153.67578 L 647.76367 141.53125 C 643.31067 145.84936 636.96865 148.81641 631.03125 148.81641 C 622.93475 148.81641 616.59375 142.34073 616.59375 134.10938 C 616.59375 121.29001 628.33281 109.00977 641.28711 109.00977 C 646.01011 109.00977 651.4069 111.16911 653.9707 114.8125 L 668.41016 104.82617 C 663.14746 97.674323 654.10635 92.412109 642.90625 92.412109 z M 717.19531 92.412109 C 694.12041 92.412109 672.25977 111.43866 672.25977 134.64844 C 672.25977 151.65098 685.8887 165.41406 703.9707 165.41406 C 727.0456 165.41406 749.04102 146.25258 749.04102 123.17773 C 749.04102 106.17519 735.27731 92.412109 717.19531 92.412109 z M 848.51562 92.412109 C 840.28423 92.412109 832.32325 95.920376 827.06055 101.58789 L 828.67969 94.03125 L 808.97852 94.03125 L 794.4043 163.79492 L 814.10547 163.79492 L 822.60742 123.17773 L 822.60742 123.3125 C 824.09172 115.75583 832.45718 109.00977 841.36328 109.00977 C 847.16578 109.00977 850.81055 112.5175 850.81055 118.58984 C 850.81055 121.55851 850.27073 123.71753 841.76953 163.79492 L 860.79492 163.79492 C 869.43112 122.36813 870.51172 118.86018 870.51172 113.73242 C 870.51172 101.18295 862.14462 92.412109 848.51562 92.412109 z M 570.85547 94.03125 L 556.28125 163.79492 L 575.98242 163.79492 L 590.55664 94.03125 L 570.85547 94.03125 z M 770.93164 94.03125 L 756.35938 163.79492 L 776.06055 163.79492 L 790.63281 94.03125 L 770.93164 94.03125 z M 323.83594 109.00977 C 331.79744 109.00977 336.52148 113.32805 336.52148 120.88477 C 336.52148 131.81493 326.13089 142.07031 314.12109 142.07031 C 306.42949 142.07031 301.43555 137.88712 301.43555 130.06055 C 301.43555 118.99541 311.96114 109.00977 323.83594 109.00977 z M 413.03711 109.00977 C 421.13361 109.00977 427.07227 114.67737 427.07227 122.50391 C 427.07227 123.98828 426.93581 125.47286 426.66602 126.82227 L 426.26172 128.57617 C 423.56282 139.64131 413.98135 148.81641 402.78125 148.81641 C 394.68475 148.81641 389.01758 143.01407 389.01758 135.1875 C 389.01758 121.15366 399.94791 109.00977 413.03711 109.00977 z M 715.71094 109.00977 C 724.07724 109.00977 730.55469 115.48735 730.55469 123.71875 C 730.55469 136.53811 718.54438 148.81641 705.45508 148.81641 C 697.22368 148.81641 690.74609 142.34073 690.74609 134.10938 C 690.74609 121.15504 702.62164 109.00977 715.71094 109.00977 z "
       transform="matrix(0.26458333,0,0,0.26458333,-172.61384,115.76042)"
       id="path880" />
    <path
       inkscape:export-ydpi="90"
       inkscape:export-xdpi="90"
       id="path865"
       d="m -139.54083,115.76042 a 33.072898,33.072898 0 0 0 -33.07301,33.073 33.072898,33.072898 0 0 0 33.07301,33.07283 33.072898,33.072898 0 0 0 33.07282,-33.07283 33.072898,33.072898 0 0 0 -33.07282,-33.073 z m 0,4.36377 c 6.78305,0 13.02163,2.36391 17.93902,6.30952 -0.0436,0.0137 -0.087,0.0278 -0.1301,0.0431 -1.44895,0.51635 -2.74414,0.97124 -3.93556,1.36632 -3.97438,-2.62885 -8.74157,-4.15958 -13.87334,-4.15958 -13.91091,0 -25.14967,11.23876 -25.14967,25.14968 0,13.9109 11.23876,25.14968 25.14967,25.14968 13.9109,0 25.14969,-11.23878 25.14969,-25.14968 0,-5.13627 -1.53343,-9.9074 -4.16657,-13.88389 0.39894,-1.18389 0.85569,-2.4719 1.37349,-3.92483 0.0155,-0.0436 0.0285,-0.0873 0.0421,-0.13109 3.94605,4.9175 6.31031,11.15657 6.31031,17.93999 0,15.83453 -12.87452,28.70905 -28.70903,28.70905 -15.83455,0 -28.70905,-12.87452 -28.70905,-28.70905 0,-15.83453 12.8745,-28.70903 28.70905,-28.70903 v 0 z m 19.0263,7.92613 c 0.481,0.006 0.93895,0.20697 1.2696,0.55637 0.46029,0.48628 0.60875,1.18976 0.38412,1.82056 -2.95374,8.28829 -4.1711,12.08348 -2.53863,19.22133 1.86363,8.14842 -3.41896,16.66095 -11.64476,19.23525 -5.58432,1.74762 -11.25885,0.27386 -14.89646,-3.46382 -2.8561,-1.25316 -6.68781,-5.39613 -8.18674,-8.18671 -3.7377,-3.63762 -5.21144,-9.31212 -3.4638,-14.89648 2.5743,-8.22577 11.08701,-13.50839 19.23541,-11.64478 7.13786,1.63248 10.93288,0.41512 19.22114,-2.53863 0.19894,-0.0709 0.40892,-0.10584 0.62012,-0.10309 z m -3.4402,5.19701 c -2.11365,0.85259 -4.88517,2.00097 -7.84589,3.32141 -6.14957,2.74265 -13.08667,6.37831 -15.28895,8.5806 -2.49395,2.49395 -4.0146,5.44558 -4.48474,8.06139 -0.35541,1.97744 -0.13727,3.69341 0.59904,5.02222 0.31644,0.34543 0.65034,0.6966 0.99431,1.0406 0.34408,0.34408 0.69528,0.67799 1.04081,0.99453 1.32873,0.73613 3.04456,0.95421 5.02183,0.59884 2.61582,-0.47013 5.56782,-1.99082 8.06179,-4.48475 2.20228,-2.20228 5.83773,-9.13918 8.5804,-15.28877 1.32043,-2.96069 2.46886,-5.73239 3.3214,-7.84607 z m -19.78183,0.64096 c -5.37921,0.0639 -10.70988,3.92584 -12.45795,9.51156 -1.09752,3.50699 -0.58112,6.89036 1.06739,9.4758 0.0155,-0.0982 0.0318,-0.19639 0.0494,-0.29457 0.62025,-3.451 2.50449,-6.98187 5.47133,-9.94872 2.67452,-2.67451 7.76033,-5.35219 12.95869,-7.77001 -1.41957,-0.10741 -2.90256,-0.33496 -4.50184,-0.70074 -0.76963,-0.176 -1.55011,-0.26496 -2.33087,-0.27332 -0.0854,-0.002 -0.17082,-0.002 -0.2562,0 z m 18.167,12.05178 c -2.41784,5.19842 -5.09566,10.28453 -7.7702,12.95908 -2.96683,2.96684 -6.49791,4.85065 -9.94894,5.47092 -0.0982,0.0176 -0.19634,0.0339 -0.29455,0.0494 2.5855,1.64872 5.96886,2.16519 9.476,1.06761 6.48503,-2.0295 10.64641,-8.888 9.23825,-15.04502 -0.36581,-1.59939 -0.59315,-3.08239 -0.70056,-4.50204 z"
       style="color:#000000;clip-rule:nonzero;display:inline;overflow:visible;visibility:visible;opacity:1;isolation:auto;mix-blend-mode:normal;color-interpolation:sRGB;color-interpolation-filters:linearRGB;solid-color:#000000;solid-opacity:1;fill:url(#linearGradient875);fill-opacity:1;fill-rule:nonzero;stroke:none;stroke-width:10.30902004;stroke-linecap:square;stroke-linejoin:round;stroke-miterlimit:4;stroke-dasharray:none;stroke-dashoffset:0;stroke-opacity:1;color-rendering:auto;image-rendering:auto;shape-rendering:auto;text-rendering:auto;enable-background:accumulate"
       inkscape:connector-curvature="0" />
  </g>
</svg>
