<?xml version="1.0" encoding="UTF-8" standalone="no"?>
<!-- Created with Inkscape (http://www.inkscape.org/) -->

<svg
   xmlns:dc="http://purl.org/dc/elements/1.1/"
   xmlns:cc="http://creativecommons.org/ns#"
   xmlns:rdf="http://www.w3.org/1999/02/22-rdf-syntax-ns#"
   xmlns:svg="http://www.w3.org/2000/svg"
   xmlns="http://www.w3.org/2000/svg"
   xmlns:sodipodi="http://sodipodi.sourceforge.net/DTD/sodipodi-0.dtd"
   xmlns:inkscape="http://www.inkscape.org/namespaces/inkscape"
   width="230.32291mm"
   height="66.145828mm"
   viewBox="0 0 230.32291 66.145828"
   version="1.1"
   id="svg890"
   inkscape:version="0.92.2 (unknown)"
   sodipodi:docname="garlicoin_full_dark.svg">
  <defs
     id="defs884" />
  <sodipodi:namedview
     id="base"
     pagecolor="#ffffff"
     bordercolor="#666666"
     borderopacity="1.0"
     inkscape:pageopacity="0.0"
     inkscape:pageshadow="2"
     inkscape:zoom="0.35"
     inkscape:cx="435.25589"
     inkscape:cy="125"
     inkscape:document-units="mm"
     inkscape:current-layer="layer1"
     showgrid="false"
     fit-margin-top="0"
     fit-margin-left="0"
     fit-margin-right="0"
     fit-margin-bottom="0"
     inkscape:window-width="1853"
     inkscape:window-height="1021"
     inkscape:window-x="67"
     inkscape:window-y="27"
     inkscape:window-maximized="1" />
  <metadata
     id="metadata887">
    <rdf:RDF>
      <cc:Work
         rdf:about="">
        <dc:format>image/svg+xml</dc:format>
        <dc:type
           rdf:resource="http://purl.org/dc/dcmitype/StillImage" />
        <dc:title></dc:title>
      </cc:Work>
    </rdf:RDF>
  </metadata>
  <g
     inkscape:label="Layer 1"
     inkscape:groupmode="layer"
     id="layer1"
     transform="translate(172.61384,-115.76042)">
    <g
       id="g882"
       transform="translate(-19.654786,-164.79757)">
      <path
         inkscape:connector-curvature="0"
         id="path880"
         d="m -119.88613,280.55799 a 33.0729,33.0729 0 0 0 -33.07292,33.07292 33.0729,33.0729 0 0 0 33.07292,33.07291 33.0729,33.0729 0 0 0 33.072912,-33.07291 33.0729,33.0729 0 0 0 -33.072912,-33.07292 z m 0,4.36356 c 6.78307,0 13.02157,2.36407 17.93896,6.30969 -0.0436,0.0138 -0.0866,0.0281 -0.1297,0.0434 -1.44894,0.51636 -2.74426,0.97125 -3.93568,1.36632 -3.97438,-2.62884 -8.74181,-4.15995 -13.87358,-4.15995 -13.9109,0 -25.14936,11.239 -25.14936,25.14989 0,13.91092 11.23846,25.14937 25.14936,25.14937 13.91091,0 25.149885,-11.23845 25.149885,-25.14937 0,-5.13625 -1.533525,-9.90741 -4.166658,-13.88391 0.398938,-1.18388 0.855741,-2.47189 1.373558,-3.92482 0.01561,-0.0436 0.0282,-0.0875 0.04186,-0.13126 3.946048,4.91752 6.310735,11.15657 6.310735,17.93999 0,15.83454 -12.87487,28.70936 -28.70938,28.70936 -15.83455,0 -28.70883,-12.87482 -28.70883,-28.70936 0,-15.83452 12.87428,-28.70884 28.70883,-28.70884 z m 19.02624,7.92613 c 0.48098,0.006 0.939029,0.20717 1.269678,0.55655 0.460296,0.48628 0.608595,1.18975 0.383964,1.82057 -2.953732,8.28828 -4.170812,12.08371 -2.538362,19.22156 1.863648,8.14843 -3.41894,16.66069 -11.64476,19.235 -5.58432,1.74763 -11.25863,0.27379 -14.89625,-3.46387 -2.8561,-1.25317 -6.68817,-5.39599 -8.18708,-8.18658 -3.73772,-3.63762 -5.2115,-9.31187 -3.46388,-14.89625 2.57432,-8.22576 11.0871,-13.50838 19.23553,-11.64476 7.13785,1.63248 10.93277,0.41486 19.22103,-2.53887 0.19894,-0.0709 0.40894,-0.1061 0.62013,-0.10335 z m 102.8314449,4.37751 c -1.60662934,0 -3.1062612,1.39257 -3.1062612,3.07061 0,1.42813 1.07074228,2.60656 2.6416793,2.60656 1.5352448,0 2.9993167,-1.46397 2.9993167,-3.07061 0,-1.42812 -1.0352088,-2.60656 -2.5347348,-2.60656 z m 52.9368271,0 c -1.606656,0 -3.106288,1.39257 -3.106288,3.07061 0,1.42813 1.071298,2.60656 2.642235,2.60656 1.535219,0 2.998761,-1.46397 2.998761,-3.07061 0,-1.42812 -1.035182,-2.60656 -2.534708,-2.60656 z m -159.208392,0.81959 c -2.11362,0.85257 -4.88532,2.00133 -7.84603,3.32176 -6.14955,2.74264 -13.08619,6.37807 -15.28847,8.58035 -2.49394,2.49397 -4.01484,5.4457 -4.48498,8.06153 -0.35541,1.97741 -0.1374,3.6931 0.59891,5.02191 0.31644,0.34542 0.65029,0.69675 0.99428,1.04077 0.34406,0.34406 0.69522,0.67825 1.04076,0.99477 1.32871,0.73615 3.04464,0.9538 5.0219,0.59841 2.61583,-0.47011 5.56808,-1.99054 8.06204,-4.48448 2.20229,-2.20229 5.83769,-9.13941 8.58036,-15.28899 1.32043,-2.96069 2.46872,-5.73235 3.32123,-7.84603 z m -19.78173,0.6413 c -5.37919,0.0639 -10.71009,3.92584 -12.45814,9.51157 -1.09752,3.50697 -0.58089,6.88996 1.06762,9.47539 0.0153,-0.0982 0.032,-0.19637 0.0496,-0.29456 0.62026,-3.45101 2.50415,-6.98189 5.471,-9.94874 2.67451,-2.67452 7.76052,-5.35174 12.95889,-7.76955 -1.41957,-0.10743 -2.90277,-0.33495 -4.50204,-0.70074 -0.76965,-0.176 -1.54985,-0.26501 -2.33061,-0.27337 -0.0854,-0.003 -0.17095,-0.003 -0.25633,0 z m 113.346575,0.25322 -5.176944,24.9561 h 5.212609 l 5.1769438,-24.9561 z m -58.077602,6.06939 c -5.426843,0 -9.746668,5.1054 -9.746668,10.46087 0,4.21296 2.713302,7.06933 6.854878,7.06933 2.284994,0 4.570015,-0.89281 6.355159,-2.60656 l -0.321442,1.57097 c -0.535543,2.3921 -3.249004,4.14186 -6.747907,4.14186 -1.963658,0 -3.962797,-0.53548 -4.962472,-1.64228 l -2.320793,3.46284 c 1.60663,1.42812 4.463018,2.5709 7.854818,2.5709 5.569664,0 10.210958,-3.03485 11.246352,-7.89047 l 3.463343,-16.70906 h -5.212609 l -0.571526,2.8205 c -0.85688,-1.85656 -3.034877,-3.2489 -5.891133,-3.2489 z m 24.208343,0 c -5.926694,0 -10.496497,5.60555 -10.496497,11.81789 0,4.32007 2.891631,7.49721 6.997488,7.49721 2.499227,0 4.748345,-1.07105 6.497796,-2.82049 l -0.499692,2.3921 h 5.212583 l 3.85609,-18.45831 h -5.212583 l -0.642858,2.99878 c -1.106805,-2.10648 -3.177408,-3.42718 -5.712327,-3.42718 z m 28.011728,0 c -2.784819,0 -5.248222,1.35669 -6.854878,3.60599 l 0.642355,-3.17759 h -5.212609 l -3.85609,18.45831 h 5.213112 l 1.891876,-9.03253 c 0.85688,-3.21327 3.891571,-5.46271 7.604707,-5.46271 z m 33.735935,0 c -6.140926,0 -11.9248498,5.06981 -11.9248498,11.17503 0,4.49859 3.6060063,8.14007 8.3545098,8.14007 3.034771,0 5.676847,-1.07067 7.926149,-3.10575 l -3.070622,-3.21324 c -1.178189,1.1425 -2.856177,1.92753 -4.427114,1.92753 -2.142199,0 -3.819922,-1.71335 -3.819922,-3.89123 0,-3.39179 3.105944,-6.64094 6.533436,-6.64094 1.249627,0 2.67753,0.57132 3.355869,1.5353 l 3.820451,-2.64221 c -1.392423,-1.89226 -3.784547,-3.28456 -6.747907,-3.28456 z m 19.655658,0 c -6.105234,0 -11.889211,5.03411 -11.889211,11.17503 0,4.49859 3.60598,8.14007 8.390176,8.14007 6.105233,0 11.924876,-5.0698 11.924876,-11.17502 0,-4.49859 -3.641645,-8.14008 -8.425841,-8.14008 z m 34.745162,0 c -2.177891,0 -4.284239,0.92823 -5.676662,2.42776 l 0.428387,-1.99936 h -5.212583 l -3.856116,18.45831 h 5.212609 l 2.249487,-10.74663 v 0.0356 c 0.392721,-1.99937 2.606067,-3.78426 4.962472,-3.78426 1.535245,0 2.499598,0.92809 2.499598,2.53473 0,0.78546 -0.142822,1.3567 -2.392098,11.96051 h 5.033804 c 2.284995,-10.96084 2.570903,-11.88899 2.570903,-13.24571 0,-3.32038 -2.213795,-5.641 -5.819801,-5.641 z m -73.4642603,0.4284 -3.8560904,18.45831 h 5.21260915 L 3.2924078,305.43709 Z m 52.9368273,0 -3.855588,18.45831 h 5.212609 l 3.855588,-18.45831 z m -118.294069,3.96307 c 2.10648,0 3.356372,1.14255 3.356372,3.14193 0,2.89194 -2.74918,5.60534 -5.926773,5.60534 -2.035069,0 -3.356372,-1.10681 -3.356372,-3.17759 0,-2.92765 2.784899,-5.56968 5.926773,-5.56968 z m 23.601124,0 c 2.142199,0 3.71348,1.49955 3.71348,3.57032 0,0.39274 -0.03609,0.78554 -0.107474,1.14257 l -0.106971,0.46405 c -0.714084,2.92765 -3.249189,5.35523 -6.212549,5.35523 -2.142199,0 -3.641645,-1.5352 -3.641645,-3.60598 0,-3.71312 2.891975,-6.92619 6.355159,-6.92619 z m 80.082468,0 c 2.213584,0 3.927396,1.71386 3.927396,3.89175 0,3.39179 -3.177725,6.64042 -6.640936,6.64042 -2.177891,0 -3.891756,-1.71335 -3.891756,-3.89123 0,-3.4275 3.142086,-6.64094 6.605296,-6.64094 z m -142.321039,1.33738 c -2.41784,5.19843 -5.09551,10.28488 -7.77007,12.95942 -2.96683,2.96685 -6.49772,4.8502 -9.94873,5.47047 -0.0982,0.0177 -0.19635,0.0341 -0.29456,0.0496 2.58551,1.64872 5.96876,2.1652 9.47589,1.06763 6.48504,-2.02951 10.64638,-8.88806 9.23822,-15.04507 -0.36581,-1.59938 -0.59333,-3.08241 -0.70075,-4.50206 z"
         style="color:#000000;clip-rule:nonzero;display:inline;overflow:visible;visibility:visible;opacity:1;isolation:auto;mix-blend-mode:normal;color-interpolation:sRGB;color-interpolation-filters:linearRGB;solid-color:#000000;solid-opacity:1;fill:#333333;fill-opacity:1;fill-rule:nonzero;stroke:none;stroke-width:9.26041698;stroke-linecap:square;stroke-linejoin:round;stroke-miterlimit:4;stroke-dasharray:none;stroke-dashoffset:0;stroke-opacity:1;color-rendering:auto;image-rendering:auto;shape-rendering:auto;text-rendering:auto;enable-background:accumulate" />
    </g>
  </g>
</svg>
